<?xml version="1.0" standalone="no"?>
<!DOCTYPE svg PUBLIC "-//W3C//DTD SVG 20010904//EN"
 "http://www.w3.org/TR/2001/REC-SVG-20010904/DTD/svg10.dtd">
<svg version="1.0" xmlns="http://www.w3.org/2000/svg"
 width="1000.000000pt" height="776.000000pt" viewBox="0 0 1000.000000 776.000000"
 preserveAspectRatio="xMidYMid meet">

<g transform="translate(0.000000,776.000000) scale(0.100000,-0.100000)"
fill="#000000" stroke="none">
<path d="M3854 6003 c-71 -76 -135 -240 -170 -434 -19 -106 -29 -307 -20 -383
l8 -58 26 25 c87 83 495 318 595 342 15 4 29 11 32 15 5 8 -100 165 -179 270
-57 74 -187 212 -229 242 l-28 20 -35 -39z"/>
<path d="M6710 4664 c-14 -2 -59 -6 -100 -9 -42 -4 -81 -10 -88 -14 -9 -5 -2
-30 27 -92 77 -166 137 -381 161 -579 6 -52 13 -96 15 -99 8 -7 146 111 236
202 135 135 251 287 338 440 l33 57 -45 20 c-125 56 -418 93 -577 74z"/>
</g>
</svg>
